<svg xmlns="http://www.w3.org/2000/svg" viewBox="0 0 512 512">
  <!-- Background circle -->
  <circle cx="256" cy="256" r="250" fill="#f0f9ff" />
  
  <!-- Outer compass ring -->
  <circle cx="256" cy="256" r="220" fill="white" stroke="#e5e7eb" stroke-width="6" />
  
  <!-- Inner compass face -->
  <circle cx="256" cy="256" r="190" fill="#3b82f6" fill-opacity="0.1" />
  <circle cx="256" cy="256" r="190" fill="none" stroke="#3b82f6" stroke-width="6" />
  
  <!-- Compass cardinal directions -->
  <line x1="256" y1="66" x2="256" y2="116" stroke="#3b82f6" stroke-width="10" stroke-linecap="round" />
  <line x1="256" y1="396" x2="256" y2="446" stroke="#3b82f6" stroke-width="10" stroke-linecap="round" />
  <line x1="66" y1="256" x2="116" y2="256" stroke="#3b82f6" stroke-width="10" stroke-linecap="round" />
  <line x1="396" y1="256" x2="446" y2="256" stroke="#3b82f6" stroke-width="10" stroke-linecap="round" />
  
  <!-- Compass intercardinal directions -->
  <line x1="130" y1="130" x2="166" y2="166" stroke="#3b82f6" stroke-width="6" stroke-linecap="round" />
  <line x1="130" y1="382" x2="166" y2="346" stroke="#3b82f6" stroke-width="6" stroke-linecap="round" />
  <line x1="382" y1="130" x2="346" y2="166" stroke="#3b82f6" stroke-width="6" stroke-linecap="round" />
  <line x1="382" y1="382" x2="346" y2="346" stroke="#3b82f6" stroke-width="6" stroke-linecap="round" />
  
  <!-- Secondary directions -->
  <line x1="197" y1="94" x2="214" y2="124" stroke="#3b82f6" stroke-width="3" stroke-linecap="round" />
  <line x1="315" y1="94" x2="298" y2="124" stroke="#3b82f6" stroke-width="3" stroke-linecap="round" />
  <line x1="94" y1="197" x2="124" y2="214" stroke="#3b82f6" stroke-width="3" stroke-linecap="round" />
  <line x1="94" y1="315" x2="124" y2="298" stroke="#3b82f6" stroke-width="3" stroke-linecap="round" />
  <line x1="197" y1="418" x2="214" y2="388" stroke="#3b82f6" stroke-width="3" stroke-linecap="round" />
  <line x1="315" y1="418" x2="298" y2="388" stroke="#3b82f6" stroke-width="3" stroke-linecap="round" />
  <line x1="418" y1="197" x2="388" y2="214" stroke="#3b82f6" stroke-width="3" stroke-linecap="round" />
  <line x1="418" y1="315" x2="388" y2="298" stroke="#3b82f6" stroke-width="3" stroke-linecap="round" />
  
  <!-- Compass center -->
  <circle cx="256" cy="256" r="25" fill="white" stroke="#3b82f6" stroke-width="5" />
  <circle cx="256" cy="256" r="15" fill="#f0f9ff" />
  
  <!-- Compass needle -->
  <path d="M256,136 L236,236 L256,216 L276,236 L256,136" fill="#ef4444" />
  <path d="M256,376 L236,276 L256,296 L276,276 L256,376" fill="#3b82f6" />
  
  <!-- Decorative star markers -->
  <circle cx="166" cy="166" r="5" fill="#f97316" />
  <circle cx="346" cy="346" r="5" fill="#f97316" />
  <circle cx="166" cy="346" r="5" fill="#10b981" />
  <circle cx="346" cy="166" r="5" fill="#10b981" />
</svg>